# xmcd
#
# Track frame offsets:
#	150
#	14092
#	28185
#	39770
#	52010
#	67920
#	79482
#	93717
#	103942
#	116979
#	133522
#	147997
#	162295
#	176305
#	189050
#	201772
#	213442
#	225870
#	238572
#	254055
#
# Disc length: 3620 seconds
# Revision: 2
# Processed by: cddbd v1.5.2PL0 Copyright (c) Steve Scherf et al.
# Submitted via: dBpowerAMP V12.0
#
DISCID=1b0e2214
DTITLE=Silveira e Silverinha - Volume 1
DYEAR=1900
DGENRE=Sertanejo
TTITLE0=Lágrima de Sangue
TTITLE1=Linda Cigana
TTITLE2=Adeus Minas Gerais
TTITLE3=Coração da Pátria
TTITLE4=Berrante de Ouro Fino
TTITLE5=Rei do Berrante
TTITLE6=Onda Malvada
TTITLE7=Amarga Solidão
TTITLE8=Doce Beijos
TTITLE9=Duas Almas
TTITLE10=Alma Vazia
TTITLE11=Moreninha
TTITLE12=Sem Ti
TTITLE13=Índia do Araguaia
TTITLE14=Quero Beijar-te
TTITLE15=Amargurado
TTITLE16=Homem Sempre Homem
TTITLE17=Sonhando Meu Bem Sonhando
TTITLE18=Folia de Reis
TTITLE19=Berrante da Meia Noite
EXTD=
EXTT0=
EXTT1=
EXTT2=
EXTT3=
EXTT4=
EXTT5=
EXTT6=
EXTT7=
EXTT8=
EXTT9=
EXTT10=
EXTT11=
EXTT12=
EXTT13=
EXTT14=
EXTT15=
EXTT16=
EXTT17=
EXTT18=
EXTT19=
PLAYORDER=
